# xmcd CD database file
#
# Track frame offsets:
#	150
#	20500
#	42245
#	64832
#	91957
#	114422
#	139137
#	158645
#	178910
#
# Disc length: 2677 seconds
#
# Revision: 0
# Processed by: cddbd v1.5.1PL2 Copyright (c) Steve Scherf et al.
# Submitted via: CDex 1.51
#
DISCID=740a7309
DTITLE=THE EYESORES - Bent at the Waist
DYEAR=2002
DGENRE=Progressive Rock
TTITLE0=Bent At The Waist
TTITLE1=Shopping Cart
TTITLE2=Thousand Yard Stare
TTITLE3=Hotel 2 Tango
TTITLE4=Smoking Shoes
TTITLE5=Ice Is For Adults
TTITLE6=Dashboard Lazarus
TTITLE7=Hatful Of Rain
TTITLE8=Chupacabra
EXTD=YEAR: 2002
EXTT0=
EXTT1=
EXTT2=
EXTT3=
EXTT4=
EXTT5=
EXTT6=
EXTT7=
EXTT8=
PLAYORDER=
